# xmcd
#
# Track frame offsets: 
#        150
#        19287
#        34952
#        51947
#        71157
#        86617
#        110800
#        129612
#        147165
#        162840
#        180987
#
# Disc length: 2696 seconds
#
# Revision: 0
# Processed by: cddbd v1.5.2PL0 Copyright (c) Steve Scherf et al.
# Submitted via: ExactAudioCopyFreeDBPlugin 1.0
#
DISCID=9d0a860b
DTITLE=Dance With a Stranger - Dance With a Stranger
DYEAR=1992
DGENRE=Pop
TTITLE0=Stop Looking for Love (Through Blue Eyes)
TTITLE1=Let Go
TTITLE2=Everyone Needs A Friend
TTITLE3=Real Love
TTITLE4=In The Atmosphere
TTITLE5=African Road
TTITLE6=Learning to Live
TTITLE7=She's Coming Home
TTITLE8=One Step Below
TTITLE9=It Wasn't Me
TTITLE10=Show What You Got
EXTD=
EXTT0=
EXTT1=
EXTT2=
EXTT3=
EXTT4=
EXTT5=
EXTT6=
EXTT7=
EXTT8=
EXTT9=
EXTT10=
PLAYORDER=
